<svg xmlns="http://www.w3.org/2000/svg" version="1.1" xmlns:xlink="http://www.w3.org/1999/xlink" xmlns:svgjs="http://svgjs.dev/svgjs" width="1000" height="1125" viewBox="0 0 1000 1125"><g transform="matrix(1,0,0,1,0,0)"><svg viewBox="0 0 320 360" data-background-color="#ffffff" preserveAspectRatio="xMidYMid meet" height="1125" width="1000" xmlns="http://www.w3.org/2000/svg" xmlns:xlink="http://www.w3.org/1999/xlink"><g id="tight-bounds" transform="matrix(1,0,0,1,0,0)"><svg viewBox="0 0 320 360" height="360" width="320"><g><svg></svg></g><g><svg viewBox="0 0 320 360" height="360" width="320"><g><path xmlns="http://www.w3.org/2000/svg" d="M320 187.111c0-45.764-20.238-86.866-52.203-114.908-28.043-31.964-69.145-52.203-114.908-52.203-84.302 0-152.889 68.587-152.889 152.889 0 45.753 20.231 86.848 52.185 114.891 28.043 31.975 69.152 52.22 114.926 52.22 0.299 0 0.59-0.021 0.889-0.021 0.299 0 0.59 0.021 0.889 0.021 83.456 0 151.111-67.655 151.111-151.111 0-0.299-0.021-0.59-0.021-0.889 0-0.299 0.021-0.59 0.021-0.889zM59.833 263.097c-15.093-21.255-24.071-47.143-24.256-75.097 0.48-72.928 59.492-131.943 132.423-132.423 27.954 0.185 53.845 9.163 75.097 24.256 24.366 23.627 39.57 56.64 39.57 93.056 0 71.559-58.219 129.778-129.778 129.778-36.416 0-69.429-15.204-93.056-39.57zM3.556 172.889c0-82.343 66.99-149.333 149.333-149.333 35.051 0 67.292 12.167 92.8 32.462-22.98-13.824-49.863-21.796-78.578-21.796-84.302 0-152.889 68.587-152.889 152.889 0 28.708 7.968 55.584 21.785 78.56-20.288-25.5-32.452-57.739-32.451-92.782zM167.111 318.667c-35.84 0-68.363-14.418-92.107-37.743 21.952 15.89 48.864 25.298 77.885 25.298 73.522 0 133.333-59.812 133.333-133.333 0-29.02-9.408-55.932-25.298-77.885 23.324 23.744 37.742 56.267 37.743 92.107 0 72.54-59.015 131.556-131.556 131.556z" fill="#ff5858" fill-rule="nonzero" stroke="none" stroke-width="1" stroke-linecap="butt" stroke-linejoin="miter" stroke-miterlimit="10" stroke-dasharray="" stroke-dashoffset="0" font-family="none" font-weight="none" font-size="none" text-anchor="none" style="mix-blend-mode: normal" data-fill-palette-color="tertiary"></path></g><g transform="matrix(1,0,0,1,107.60741075893603,99)"><svg viewBox="0 0 104.78517848212796 162" height="162" width="104.78517848212796"><g><svg viewBox="0 0 104.78517848212796 162" height="162" width="104.78517848212796"><g><svg viewBox="0 0 104.78517848212796 162" height="162" width="104.78517848212796"><g><svg viewBox="0 0 104.78517848212796 162" height="162" width="104.78517848212796"><g id="textblocktransform"><svg viewBox="0 0 104.78517848212796 162" height="162" width="104.78517848212796" id="textblock"><g><svg viewBox="0 0 104.78517848212796 162" height="162" width="104.78517848212796"><g transform="matrix(1,0,0,1,0,0)"><svg width="104.78517848212796" viewBox="2.640000104904175 -37.380001068115234 24.560001373291016 37.9697151184082" height="162" data-palette-color="#ff5858"><path d="M14.4-2.34L14.4-2.34Q16.21-2.34 17.69-2.7 19.17-3.05 20.24-3.81L20.24-3.81Q22.53-5.4 22.53-8.45L22.53-8.45Q22.53-11.04 20.85-12.7L20.85-12.7Q19.07-14.4 15.08-16.15 11.08-17.9 9-19.27 6.91-20.65 5.71-22.07L5.71-22.07Q3.54-24.56 3.54-28.1L3.54-28.1Q3.54-32.2 7.08-34.86L7.08-34.86Q10.38-37.38 15.06-37.38L15.06-37.38Q18.75-37.38 22.44-36.04L22.44-36.04Q23.97-35.42 25.22-34.69L25.22-34.69 24.37-28.17 22.31-28.17Q22.31-31.54 20.48-33.07 18.65-34.59 15.19-34.59L15.19-34.59Q10.4-34.59 8.64-31.47L8.64-31.47Q8.08-30.44 8.08-29.17 8.08-27.91 8.45-26.89 8.81-25.88 9.86-24.9L9.86-24.9Q11.91-22.92 17.58-20.56L17.58-20.56Q25.49-17.19 26.81-12.6L26.81-12.6Q27.2-11.16 27.2-9.53 27.2-7.91 26.65-6.46 26.1-5 25.15-3.87 24.19-2.73 22.94-1.9 21.68-1.07 20.26-0.54L20.26-0.54Q13.99 1.9 7.08-0.93L7.08-0.93Q4.57-1.98 2.64-3.49L2.64-3.49 3.66-10.5 5.74-10.5Q5.74-5.59 8.84-3.66L8.84-3.66Q10.96-2.34 14.4-2.34Z" opacity="1" transform="matrix(1,0,0,1,0,0)" fill="#ff5858" class="wordmark-text-0" data-fill-palette-color="primary" id="text-0"></path></svg></g></svg></g></svg></g></svg></g><g></g></svg></g></svg></g></svg></g></svg></g><defs></defs></svg><rect width="320" height="360" fill="none" stroke="none" visibility="hidden"></rect></g></svg></g></svg>